<?xml version="1.0" standalone="no"?>
<!DOCTYPE svg PUBLIC "-//W3C//DTD SVG 20010904//EN"
 "http://www.w3.org/TR/2001/REC-SVG-20010904/DTD/svg10.dtd">
<svg version="1.0" xmlns="http://www.w3.org/2000/svg"
 width="353.000000pt" height="353.000000pt" viewBox="0 0 353.000000 353.000000"
 preserveAspectRatio="xMidYMid meet">
<metadata>
Created by potrace 1.16, written by Peter Selinger 2001-2019
</metadata>
<g transform="translate(0.000000,247.000000) scale(0.100000,-0.100000)"
fill="#7d40e7" stroke="none">
<path d="M1081 2294 c-178 -48 -340 -210 -384 -385 l-14 -54 -89 -6 c-110 -8
-188 -35 -277 -96 -111 -75 -195 -197 -226 -327 -19 -78 -15 -221 8 -296 45
-144 159 -279 286 -340 l65 -31 0 -70 c0 -84 34 -195 84 -272 191 -299 616
-347 866 -97 70 70 130 170 130 217 0 53 -60 88 -115 67 -9 -4 -25 -25 -37
-48 -58 -115 -144 -191 -257 -227 -208 -64 -436 58 -501 267 -23 76 -25 125
-8 189 11 40 10 48 -8 71 -12 17 -40 33 -76 44 -118 36 -209 115 -264 225 -26
55 -29 69 -29 165 0 93 3 111 27 163 38 82 83 134 150 177 78 51 168 75 250
66 112 -13 130 -11 150 13 10 13 18 39 18 60 1 142 99 288 238 354 61 29 76
32 162 32 87 0 101 -3 166 -33 115 -54 201 -156 233 -278 13 -48 26 -62 67
-70 21 -4 37 0 58 17 26 20 28 27 24 74 -3 32 -19 82 -41 129 -68 144 -209
261 -363 301 -73 19 -221 19 -293 -1z"/>
<path d="M810 1560 c-20 -20 -26 -65 -12 -86 22 -33 43 -34 1117 -34 1074 0
1095 1 1117 34 14 21 8 66 -12 86 -20 20 -33 20 -1105 20 -1072 0 -1085 0
-1105 -20z"/>
<path d="M1357 1202 c-23 -25 -21 -68 3 -92 20 -20 33 -20 1020 -20 l1001 0
25 26 c20 19 24 31 19 52 -3 15 -13 33 -22 40 -13 9 -234 12 -1023 12 -963 0
-1008 -1 -1023 -18z"/>
<path d="M1044 852 c-37 -24 -39 -93 -4 -112 12 -6 421 -10 1108 -10 1042 0
1090 1 1105 18 22 25 21 75 -1 95 -17 16 -108 17 -1108 17 -599 0 -1094 -4
-1100 -8z"/>
</g>
</svg>
