<?xml version="1.0" standalone="no"?>
<!DOCTYPE svg PUBLIC "-//W3C//DTD SVG 20010904//EN"
 "http://www.w3.org/TR/2001/REC-SVG-20010904/DTD/svg10.dtd">
<svg version="1.0" xmlns="http://www.w3.org/2000/svg"
 width="234.000000pt" height="36.000000pt" viewBox="0 0 234.000000 36.000000"
 preserveAspectRatio="xMidYMid meet">

<g transform="translate(0.000000,36.000000) scale(0.100000,-0.100000)"
fill="#000000" stroke="none">
<path d="M1381 347 c-66 -21 -124 -101 -106 -144 6 -14 10 -9 15 20 8 46 42
83 95 108 55 25 81 24 101 -5 13 -21 14 -29 2 -52 -12 -25 -22 -33 -67 -54 -8
-3 -17 -12 -19 -20 -3 -9 2 -11 22 -6 23 6 26 3 26 -19 0 -32 -39 -58 -74 -49
-21 5 -26 3 -26 -11 0 -18 21 -18 103 1 23 5 27 3 27 -15 0 -24 8 -26 45 -9
21 9 31 9 46 0 26 -17 33 -15 68 14 l31 26 -7 -33 c-8 -41 16 -36 36 8 8 17
24 36 37 42 13 5 41 27 63 47 23 20 41 33 41 30 0 -4 -18 -37 -40 -73 -22 -37
-40 -74 -40 -82 1 -17 4 -13 37 36 11 16 12 15 7 -10 -5 -24 -3 -27 19 -27 14
0 29 5 33 11 3 6 19 9 34 5 20 -3 36 1 53 14 32 25 47 25 47 0 0 -28 15 -25
40 10 27 37 50 30 50 -16 0 -36 19 -46 40 -21 52 63 52 62 45 42 -4 -11 -9
-26 -13 -34 -10 -25 22 -6 35 21 7 14 21 32 30 39 17 13 17 13 0 -13 -21 -34
-22 -64 -1 -72 24 -9 87 -7 104 4 11 7 -2 10 -42 10 -65 0 -74 14 -38 60 11
14 20 31 20 38 0 14 -26 16 -35 2 -11 -18 -35 -11 -35 10 0 29 -41 26 -79 -6
-24 -20 -31 -22 -31 -10 0 27 -29 18 -45 -15 -9 -17 -19 -28 -23 -25 -3 4 0
12 6 18 16 16 15 28 -2 28 -8 0 -16 -7 -20 -15 -9 -24 -24 -17 -28 12 -5 44
-30 37 -68 -16 -19 -28 -45 -54 -57 -60 -27 -12 -28 -9 -7 30 8 16 12 38 9 49
-4 12 10 43 40 89 24 39 41 71 37 71 -4 0 -41 -34 -82 -76 -73 -74 -107 -101
-117 -91 -7 8 45 105 65 119 24 17 56 67 48 75 -10 10 -47 -29 -78 -84 -34
-60 -53 -78 -82 -78 -16 0 -21 -6 -21 -26 0 -32 -31 -69 -57 -69 -16 0 -17 3
-8 21 7 11 20 29 31 40 24 24 24 39 -1 39 -12 0 -26 -12 -36 -32 -19 -39 -52
-67 -76 -68 -29 0 -21 28 12 45 32 17 41 45 13 45 -9 0 -29 -12 -45 -27 l-27
-26 6 39 c3 21 14 51 24 66 11 14 19 42 19 62 0 30 -5 38 -26 46 -31 12 -58
11 -103 -3z m149 -177 c0 -5 -5 -10 -11 -10 -5 0 -7 5 -4 10 3 6 8 10 11 10 2
0 4 -4 4 -10z m85 0 c-3 -5 -11 -10 -16 -10 -6 0 -7 5 -4 10 3 6 11 10 16 10
6 0 7 -4 4 -10z m555 1 c0 -10 -30 -24 -37 -17 -3 3 -2 9 2 15 8 13 35 15 35
2z m-230 -46 c0 -16 -27 -32 -37 -21 -7 7 16 36 28 36 5 0 9 -7 9 -15z m190
-20 c-16 -19 -30 -19 -30 0 0 17 33 38 38 24 2 -5 -2 -16 -8 -24z"/>
<path d="M427 325 c-16 -8 -45 -28 -65 -43 -21 -16 -42 -27 -49 -25 -6 2 -22
-12 -35 -31 -32 -47 -89 -91 -169 -132 -64 -32 -122 -85 -100 -92 14 -5 46 14
116 67 65 51 100 74 128 84 14 5 16 2 11 -17 -8 -34 21 -41 64 -16 25 15 37
18 42 10 6 -9 13 -9 28 -1 11 6 27 9 34 6 9 -4 14 2 14 15 0 21 -11 27 -21 10
-3 -5 -13 -10 -22 -10 -13 0 -13 3 -3 15 19 23 -13 20 -34 -4 -19 -21 -74 -47
-82 -39 -15 16 13 63 54 92 114 78 177 157 89 111z m-42 -61 c-53 -44 -72 -46
-26 -4 24 22 47 38 50 34 3 -3 -7 -17 -24 -30z m-316 -217 c-2 -1 -13 -9 -24
-17 -19 -14 -19 -14 -6 3 7 9 18 17 24 17 6 0 8 -1 6 -3z"/>
<path d="M986 270 c-13 -17 -37 -53 -52 -80 -31 -57 -42 -59 -24 -5 7 20 9 39
6 42 -9 10 -13 2 -29 -69 -19 -86 -4 -82 48 12 21 39 47 77 57 87 18 16 18 15
3 -21 -9 -21 -14 -40 -12 -42 4 -4 47 88 47 100 0 15 -21 3 -44 -24z"/>
<path d="M560 271 c-5 -11 -10 -33 -10 -48 0 -19 -10 -39 -30 -58 -16 -16 -30
-23 -30 -16 0 7 -4 9 -10 6 -5 -3 -10 -13 -10 -21 0 -20 109 -20 136 1 24 18
36 19 32 1 -2 -8 1 -14 7 -13 14 3 14 20 0 47 l-12 23 -12 -21 c-6 -12 -20
-26 -29 -31 -16 -9 -18 -5 -16 30 1 22 8 47 17 57 8 9 20 27 26 40 11 20 10
22 -18 22 -20 0 -34 -7 -41 -19z m29 -17 c-15 -16 -25 -21 -28 -13 -2 7 4 18
15 26 30 22 39 15 13 -13z m-39 -109 c-7 -8 -19 -15 -28 -15 -12 0 -10 6 9 26
24 26 41 16 19 -11z"/>
<path d="M1347 202 c-47 -67 -92 -112 -111 -112 -3 0 -3 14 1 30 6 35 -1 39
-17 10 -14 -27 -4 -60 19 -60 19 0 65 45 101 100 13 19 36 47 52 62 15 15 28
32 28 37 0 26 -22 6 -73 -67z"/>
<path d="M470 256 c0 -8 5 -18 10 -21 6 -3 10 1 10 9 0 8 -4 18 -10 21 -5 3
-10 -1 -10 -9z"/>
<path d="M702 215 c0 -16 2 -22 5 -12 2 9 2 23 0 30 -3 6 -5 -1 -5 -18z"/>
<path d="M770 191 c-26 -53 -79 -84 -65 -40 5 15 4 19 -4 15 -17 -11 -13 -46
5 -46 9 0 30 12 48 26 27 24 31 25 34 9 5 -22 -25 -64 -68 -93 -38 -26 -58
-29 -39 -6 12 14 11 16 -6 13 -21 -4 -35 -49 -15 -49 24 0 89 41 118 75 33 37
39 59 22 85 -5 9 -5 19 1 26 7 8 7 14 0 18 -6 4 -19 -11 -31 -33z"/>
<path d="M978 164 c-38 -20 -38 -54 0 -54 15 0 33 5 40 12 9 9 12 8 12 -7 0
-16 5 -14 26 13 26 33 27 33 38 11 6 -12 18 -25 26 -27 11 -4 10 -1 -3 12 -9
10 -17 26 -17 37 0 25 -4 24 -58 -7 l-45 -26 7 26 c3 14 5 26 4 26 -2 -1 -15
-8 -30 -16z"/>
</g>
</svg>
